<?xml version="1.0" encoding="UTF-8"?>
<!DOCTYPE svg PUBLIC "-//W3C//DTD SVG 1.1//EN" "http://www.w3.org/Graphics/SVG/1.1/DTD/svg11.dtd">
<!-- Creator: CorelDRAW 2021 (64 Bit) -->
<svg xmlns="http://www.w3.org/2000/svg" xml:space="preserve" width="336px" height="67px" version="1.1" style="shape-rendering:geometricPrecision; text-rendering:geometricPrecision; image-rendering:optimizeQuality; fill-rule:evenodd; clip-rule:evenodd"
viewBox="0 0 336 67"
 xmlns:xlink="http://www.w3.org/1999/xlink"
 xmlns:xodm="http://www.corel.com/coreldraw/odm/2003">
 <defs>
  <style type="text/css">
   <![CDATA[
    .fil0 {fill:url(#id1);fill-rule:nonzero}
   ]]>
  </style>
    <clipPath id="id0">
     <path d="M5 12.92l342.79 0 0 56.58 -342.79 0 0 -56.58z"/>
    </clipPath>
  <linearGradient id="id1" gradientUnits="userSpaceOnUse" x1="74.66" y1="38.63" x2="285.13" y2="43.82">
   <stop offset="0" style="stop-opacity:1; stop-color:#00F9FF"/>
   <stop offset="1" style="stop-opacity:1; stop-color:#9100FF"/>
  </linearGradient>
 </defs>
 <g id="Camada_x0020_1">
  <metadata id="CorelCorpID_0Corel-Layer"/>
  <g id="_1801415127328">
   <g style="clip-path:url(#id0)">
    <image x="5" y="12.92" width="342.79" height="56.58" xlink:href="gled_Images\gled_ImgID1.png"/>
   </g>
  </g>
  <path class="fil0" d="M38.74 39.66l0 11.16 1.92 -0.71 0 -10.45 -1.92 0zm10.27 -0.83l-4.57 1.06c-0.24,1.39 -0.45,3.17 -0.59,5.34 -0.16,2.17 -0.23,4.11 -0.21,5.82 -2.18,0.86 -3.96,1.51 -5.34,1.97 -1.38,0.46 -3.03,0.86 -4.94,1.22 -1.91,0.36 -3.99,0.55 -6.26,0.55 -3.75,0 -7.05,-0.59 -9.9,-1.77 -2.85,-1.18 -5.2,-2.76 -7.06,-4.74 -1.85,-2 -3.22,-4.21 -4.12,-6.64 -0.89,-2.44 -1.34,-4.89 -1.34,-7.35 0,-2.92 0.5,-5.7 1.48,-8.35 0.99,-2.66 2.44,-5.02 4.37,-7.1 1.92,-2.09 4.28,-3.72 7.06,-4.91 2.79,-1.19 5.94,-1.78 9.45,-1.78 0.56,0 0.99,0.01 1.3,0.03 0.32,0.02 0.71,0.03 1.19,0.06 0.47,0.01 1.11,0.04 1.91,0.08 2.32,0.16 4.52,0.24 6.6,0.24 1.91,0 3.48,-0.06 4.68,-0.18l0.4 9.52 -0.4 0 -1.83 -6.36c-0.72,-0.2 -1.63,-0.39 -2.71,-0.59 -1.08,-0.2 -2.31,-0.38 -3.66,-0.53 -1.36,-0.15 -2.83,-0.23 -4.41,-0.23 -3.33,0 -6.22,0.54 -8.67,1.62 -2.46,1.07 -4.43,2.51 -5.92,4.33 -1.49,1.81 -2.58,3.83 -3.27,6.04 -0.69,2.2 -1.03,4.46 -1.03,6.75 0,2.61 0.48,5.08 1.44,7.39 0.96,2.32 2.32,4.37 4.08,6.17 1.76,1.78 3.81,3.18 6.15,4.17 2.33,1 4.82,1.5 7.43,1.5 0.69,0 1.4,-0.04 2.12,-0.12 0.72,-0.07 1.47,-0.17 2.24,-0.3 0.77,-0.11 1.64,-0.25 2.64,-0.41 0.39,-1.69 0.59,-3.48 0.59,-5.36 0,-2.61 -0.2,-4.65 -0.59,-6.13l-7.36 -1.01 0 -0.34 19.05 0 0 0.34zm-18.51 -25.64l0 -0.23c-1.27,-0.11 -2.42,-0.17 -3.46,-0.17 -3.07,0 -5.91,0.54 -8.51,1.6 -2.59,1.06 -4.84,2.56 -6.73,4.48 -1.89,1.94 -3.36,4.23 -4.39,6.88 -1.05,2.66 -1.56,5.49 -1.56,8.52 0,3.53 0.88,6.81 2.65,9.85 1.77,3.03 4.31,5.44 7.62,7.23 3.31,1.79 7.21,2.68 11.69,2.68 0.84,0 1.98,-0.09 3.43,-0.25l0 -0.24c-4.19,0.02 -7.77,-0.54 -10.78,-1.71 -3,-1.16 -5.42,-2.74 -7.26,-4.73 -1.85,-2 -3.18,-4.19 -4.01,-6.56 -0.83,-2.38 -1.24,-4.75 -1.24,-7.13 0,-2.93 0.47,-5.63 1.41,-8.1 0.94,-2.47 2.31,-4.61 4.12,-6.42 1.8,-1.81 4.07,-3.21 6.8,-4.2 2.72,-1 5.8,-1.5 9.22,-1.5l1 0zm28.16 0.65l0 39.6 1.98 0 0 -39.6 -1.98 0zm-8.65 -0.76l0 -0.29 21.56 0 0 0.29 -7.08 0.98c-0.25,1.86 -0.45,4.34 -0.63,7.47 -0.17,3.13 -0.25,5.86 -0.25,8.2l0 12.27c0,2.94 0.15,6.01 0.46,9.21 3.25,1.02 6.6,1.54 10.07,1.54 1.67,0 3.21,-0.1 4.61,-0.29 1.41,-0.19 2.4,-0.37 2.97,-0.54l2.97 -7.79 0.43 0 -1.35 10.43 -33.82 0 0 -0.3 6.83 -1c0.22,-0.91 0.42,-2.54 0.58,-4.88 0.16,-2.33 0.29,-4.75 0.38,-7.24 0.1,-2.49 0.15,-4.25 0.15,-5.28l0 -7.18c0,-1.59 -0.04,-3.4 -0.12,-5.44 -0.08,-2.05 -0.17,-3.84 -0.27,-5.38 -0.1,-1.54 -0.25,-2.8 -0.41,-3.8l-7.08 -0.98zm44.69 0.82l0 39.54 1.98 0 0 -39.54 -1.98 0zm-8.68 -0.83l0 -0.28 30.4 0 0.72 8.88 -0.46 0 -2.05 -6.95c-1.62,-0.12 -3.44,-0.18 -5.45,-0.18 -3.68,0 -6.63,0.26 -8.87,0.77 -0.38,3.08 -0.57,6.59 -0.57,10.55 0,2.47 0.07,4.47 0.22,6.01 3.01,0.17 4.92,0.25 5.74,0.25 2.15,0 4.36,-0.12 6.64,-0.36l1.28 -4.85 0.49 0 0 12.16 -0.49 0 -1.33 -5.14c-1.65,-0.19 -3.49,-0.29 -5.48,-0.29 -2.51,0 -4.79,0.12 -6.85,0.35 -0.24,2.2 -0.32,4.36 -0.22,6.47 0.03,2.7 0.08,4.93 0.14,6.69 0.06,1.75 0.16,3.27 0.31,4.54 2.32,0.7 5.36,1.06 9.13,1.06 2.17,0 3.99,-0.09 5.47,-0.26l2.29 -6.87 0.4 0 -0.63 8.94 -30.74 0 0 -0.3 6.82 -1c0.15,-0.78 0.29,-1.96 0.41,-3.56 0.13,-1.6 0.24,-3.39 0.34,-5.38 0.08,-1.98 0.15,-3.65 0.19,-4.99 0.04,-1.34 0.06,-2.51 0.06,-3.52l0 -7.19c0,-0.91 -0.03,-2.21 -0.09,-3.89 -0.06,-1.69 -0.15,-3.43 -0.25,-5.24 -0.12,-1.8 -0.28,-3.61 -0.49,-5.41l-7.08 -1.01zm33.92 -0.28l23.48 0c4.37,0 8.09,0.63 11.16,1.9 3.07,1.26 5.49,2.91 7.28,4.94 1.77,2.04 3.04,4.26 3.81,6.65 0.77,2.4 1.16,4.83 1.16,7.31 0,3 -0.5,5.8 -1.5,8.37 -0.99,2.58 -2.43,4.81 -4.3,6.71 -1.88,1.88 -4.08,3.35 -6.62,4.36 -2.53,1.02 -5.33,1.53 -8.37,1.53l-26.26 0 0 -0.3 6.93 -0.99c0.32,-1.61 0.57,-4.29 0.77,-8.03 0.18,-3.74 0.28,-6.67 0.28,-8.8l0 -7.48c0,-5.53 -0.24,-10.47 -0.74,-14.84l-7.08 -1.04 0 -0.29zm13.55 14.29l0 16.65c0,2.45 0.13,4.95 0.4,7.48 1.21,0.57 2.59,0.99 4.13,1.25 1.54,0.27 3.08,0.4 4.63,0.4 2.12,0 4.22,-0.41 6.3,-1.22 2.07,-0.8 3.94,-1.99 5.6,-3.57 1.67,-1.57 3,-3.59 4.02,-6.03 1,-2.45 1.5,-5.24 1.5,-8.41 0,-3.31 -0.53,-6.17 -1.59,-8.59 -1.07,-2.43 -2.54,-4.41 -4.41,-5.96 -1.87,-1.55 -4.02,-2.7 -6.44,-3.44 -2.41,-0.75 -4.95,-1.12 -7.61,-1.12 -2.15,0 -4.09,0.25 -5.82,0.72 -0.12,0.72 -0.23,1.76 -0.34,3.1 -0.09,1.33 -0.19,2.91 -0.26,4.71 -0.08,1.81 -0.11,3.16 -0.11,4.03zm-4.9 -13.18l0 39.55 1.98 0 0 -39.55 -1.98 0zm10.32 -0.41l0 0.27c2.75,0 5.23,0.24 7.43,0.71 2.2,0.48 4.04,1.12 5.53,1.94 1.5,0.82 2.78,1.77 3.87,2.85 1.12,1.12 2.08,2.42 2.89,3.89 0.81,1.46 1.44,3.08 1.91,4.88 0.47,1.79 0.7,3.68 0.7,5.67 0,4.43 -0.95,8.15 -2.85,11.16 -1.9,3.01 -4.25,5.21 -7.02,6.61 -2.77,1.39 -5.41,2.09 -7.91,2.09l-2.16 0 0 0.3 2.16 0c4.15,0 7.74,-0.91 10.77,-2.73 3.04,-1.82 5.34,-4.27 6.9,-7.33 1.55,-3.08 2.33,-6.41 2.33,-9.98 0,-3.19 -0.55,-6.05 -1.66,-8.55 -1.11,-2.5 -2.5,-4.58 -4.18,-6.24 -3.59,-3.69 -9.26,-5.54 -17.01,-5.54l-1.7 0zm39.81 0.41l0 39.54 1.98 0 0 -39.54 -1.98 0zm-8.68 -0.83l0 -0.28 30.4 0 0.72 8.88 -0.46 0 -2.05 -6.95c-1.62,-0.12 -3.44,-0.18 -5.45,-0.18 -3.68,0 -6.63,0.26 -8.87,0.77 -0.38,3.08 -0.57,6.59 -0.57,10.55 0,2.47 0.07,4.47 0.23,6.01 3,0.17 4.91,0.25 5.73,0.25 2.15,0 4.36,-0.12 6.64,-0.36l1.28 -4.85 0.49 0 0 12.16 -0.49 0 -1.33 -5.14c-1.65,-0.19 -3.49,-0.29 -5.48,-0.29 -2.51,0 -4.79,0.12 -6.84,0.35 -0.25,2.2 -0.33,4.36 -0.23,6.47 0.03,2.7 0.08,4.93 0.14,6.69 0.06,1.75 0.16,3.27 0.31,4.54 2.33,0.7 5.36,1.06 9.13,1.06 2.17,0 3.99,-0.09 5.47,-0.26l2.29 -6.87 0.4 0 -0.63 8.94 -30.74 0 0 -0.3 6.82 -1c0.15,-0.78 0.29,-1.96 0.41,-3.56 0.13,-1.6 0.24,-3.39 0.34,-5.38 0.08,-1.98 0.15,-3.65 0.19,-4.99 0.04,-1.34 0.06,-2.51 0.06,-3.52l0 -7.19c0,-0.91 -0.03,-2.21 -0.09,-3.89 -0.06,-1.69 -0.15,-3.43 -0.25,-5.24 -0.12,-1.8 -0.28,-3.61 -0.49,-5.41l-7.08 -1.01zm49.23 -0.22l-0.92 0c-2.09,0 -4.02,0.42 -5.79,1.25 -1.77,0.84 -3.16,2.03 -4.2,3.57 -1.02,1.54 -1.53,3.28 -1.53,5.22 0,2.41 1.06,4.68 3.16,6.78 0.93,0.9 1.8,1.65 2.61,2.26 0.81,0.6 2.03,1.47 3.67,2.58 1.64,1.11 2.94,2.03 3.92,2.74 0.98,0.71 1.78,1.39 2.41,2.04 1.71,1.7 2.57,3.62 2.57,5.73 0,1.45 -0.4,2.84 -1.19,4.18 -0.79,1.34 -1.93,2.44 -3.42,3.27 -1.49,0.85 -3.25,1.29 -5.26,1.31l0 0.31c2.32,0.08 4.39,-0.33 6.21,-1.23 1.81,-0.89 3.19,-2.07 4.15,-3.53 0.96,-1.47 1.44,-2.98 1.44,-4.54 0,-1.35 -0.22,-2.58 -0.66,-3.68 -0.43,-1.1 -1.22,-2.23 -2.38,-3.4 -0.67,-0.66 -1.87,-1.58 -3.59,-2.77 -1.74,-1.19 -3.49,-2.39 -5.25,-3.59 -1.77,-1.21 -3.07,-2.2 -3.89,-2.98 -1.99,-1.98 -3,-4.16 -3,-6.54 0,-2.09 0.92,-4.04 2.73,-5.85 1.82,-1.8 4.56,-2.75 8.21,-2.85l0 -0.28zm-13.95 31.72l2.17 7.02c1.08,0.49 2.34,0.89 3.8,1.19 1.45,0.31 2.72,0.45 3.78,0.43 1.42,0 2.74,-0.24 3.93,-0.74 1.18,-0.49 2.15,-1.12 2.91,-1.88 0.75,-0.77 1.32,-1.62 1.72,-2.59 0.4,-0.95 0.59,-1.89 0.59,-2.8 0,-1.88 -0.63,-3.47 -1.9,-4.76 -1.28,-1.3 -3.41,-2.95 -6.41,-4.97 -2.99,-2.01 -5.16,-3.7 -6.51,-5.04 -1.16,-1.2 -2.03,-2.4 -2.6,-3.61 -0.57,-1.21 -0.86,-2.55 -0.86,-4.03 0,-1.64 0.45,-3.26 1.34,-4.88 0.9,-1.62 2.28,-2.96 4.14,-4.04 1.86,-1.07 4.16,-1.61 6.87,-1.61 1.24,0 2.55,0.06 3.94,0.18 1.39,0.12 2.34,0.17 2.88,0.17 0.46,-0.01 0.88,-0.03 1.27,-0.03 0.4,-0.01 0.72,-0.02 0.96,-0.05 0.24,-0.03 0.49,-0.06 0.76,-0.09l0.16 9.75 -0.37 0 -1.79 -6.61c-2.64,-1.16 -4.94,-1.74 -6.9,-1.74 -1.64,0 -3.11,0.31 -4.41,0.93 -1.3,0.62 -2.31,1.47 -3.04,2.54 -0.72,1.08 -1.08,2.28 -1.08,3.64 0,1.4 0.49,2.69 1.46,3.86 0.97,1.17 2.29,2.32 3.97,3.44 1.69,1.13 3.5,2.32 5.43,3.57 1.92,1.26 3.47,2.47 4.63,3.62 2.26,2.26 3.39,4.88 3.39,7.85 0,1.68 -0.44,3.4 -1.31,5.18 -0.87,1.78 -2.34,3.28 -4.42,4.52 -2.07,1.24 -4.75,1.86 -8.04,1.86 -1.16,0 -2.57,-0.07 -4.23,-0.21 -1.67,-0.13 -2.88,-0.2 -3.66,-0.2 -0.36,0 -0.65,0.01 -0.85,0.03 -0.19,0.02 -0.51,0.05 -0.93,0.09 -0.41,0.04 -0.66,0.05 -0.74,0.05l-0.45 -10.04 0.4 0zm51.11 -32.36c4.05,0 7.55,0.67 10.52,2.02 2.96,1.35 5.4,3.12 7.29,5.31 1.89,2.19 3.28,4.5 4.16,6.97 0.89,2.46 1.33,4.83 1.33,7.09 0,2.58 -0.5,5.13 -1.5,7.62 -1,2.48 -2.48,4.76 -4.42,6.82 -1.95,2.07 -4.36,3.72 -7.25,4.96 -2.88,1.24 -6.08,1.85 -9.62,1.85 -5.12,0 -9.45,-1.11 -13.01,-3.32 -3.56,-2.22 -6.17,-4.97 -7.87,-8.24 -1.69,-3.27 -2.54,-6.46 -2.54,-9.58 0,-2.75 0.54,-5.43 1.62,-8.01 1.07,-2.59 2.63,-4.91 4.67,-6.95 2.04,-2.05 4.49,-3.64 7.34,-4.8 2.85,-1.16 5.95,-1.74 9.28,-1.74zm0.16 1.98c-2.95,0 -5.67,0.77 -8.17,2.31 -2.51,1.54 -4.49,3.77 -5.97,6.68 -1.47,2.91 -2.21,6.34 -2.21,10.29 0,4.26 0.81,7.86 2.41,10.8 1.61,2.94 3.66,5.11 6.18,6.53 2.53,1.41 5.13,2.12 7.81,2.12 2.18,0 4.26,-0.42 6.21,-1.26 1.96,-0.83 3.71,-2.05 5.25,-3.66 1.54,-1.6 2.75,-3.58 3.61,-5.94 0.87,-2.34 1.3,-4.96 1.3,-7.85 0,-3.95 -0.46,-7.11 -1.36,-9.46 -0.92,-2.36 -2.26,-4.42 -4.03,-6.2 -1.49,-1.5 -3.2,-2.6 -5.12,-3.31 -1.9,-0.7 -3.87,-1.05 -5.91,-1.05zm1.47 -1.17l0 0.3c1.83,0.13 3.69,0.56 5.55,1.29 1.86,0.73 3.61,1.88 5.23,3.43 1.62,1.55 2.92,3.63 3.92,6.26 0.98,2.62 1.48,5.77 1.48,9.46 0,2.41 -0.3,4.73 -0.87,6.93 -0.58,2.21 -1.51,4.25 -2.79,6.11 -1.29,1.86 -2.96,3.39 -5.03,4.61 -2.07,1.22 -4.55,1.98 -7.44,2.26l0 0.31c2.44,-0.11 4.74,-0.63 6.94,-1.57 2.19,-0.93 4.12,-2.26 5.83,-4 1.7,-1.74 3.04,-3.86 4.04,-6.37 0.98,-2.52 1.48,-5.31 1.48,-8.4 0,-3.36 -0.52,-6.33 -1.54,-8.9 -1.03,-2.58 -2.43,-4.73 -4.2,-6.44 -1.77,-1.71 -3.73,-3.01 -5.89,-3.88 -2.16,-0.87 -4.4,-1.34 -6.71,-1.4zm-2.81 0.3l0 -0.3c-2.66,0.02 -5.26,0.6 -7.79,1.72 -2.52,1.12 -4.75,2.64 -6.67,4.56 -1.91,1.92 -3.41,4.1 -4.48,6.56 -1.09,2.45 -1.62,5.03 -1.62,7.73 0,3.31 0.9,6.53 2.7,9.65 1.79,3.14 4.28,5.68 7.45,7.64 3.18,1.95 6.66,2.99 10.47,3.1l0 -0.31c-3.69,-0.32 -6.95,-1.47 -9.78,-3.46 -2.84,-1.97 -4.99,-4.43 -6.47,-7.35 -1.47,-2.93 -2.21,-5.96 -2.21,-9.1 0,-2.58 0.43,-5.06 1.29,-7.44 0.85,-2.37 2.09,-4.5 3.7,-6.37 1.62,-1.85 3.58,-3.36 5.87,-4.52 2.28,-1.16 4.8,-1.87 7.54,-2.11zm26.96 -0.24l0 -0.29 14.39 0c0.95,1.29 2.18,2.85 3.7,4.67 1.51,1.83 2.85,3.4 4.03,4.72l12.78 14.2c1.69,1.84 3.01,3.27 3.95,4.27 0.94,1.02 2.16,2.24 3.67,3.68 0.1,-1.31 0.18,-2.54 0.22,-3.68 0.04,-1.14 0.06,-2.21 0.06,-3.22l0 -12.32c0,-4.42 -0.22,-8.09 -0.65,-10.98l-6.94 -1.05 0 -0.29 16.99 0 0 0.29 -6.93 1.11c-0.36,2.67 -0.54,6.07 -0.54,10.21l0 31.27 -0.3 0c-2.91,-3.69 -5.79,-7.15 -8.65,-10.36l-17.45 -19.45c-2.59,-2.77 -4.8,-4.96 -6.62,-6.6 -0.26,2.58 -0.4,5 -0.4,7.25l0 18.06c0,2.41 0.2,5.29 0.58,8.64l7.24 1.06 0 0.29 -17.33 0 0 -0.29 7.02 -1c0.22,-1.36 0.39,-3.32 0.48,-5.84 0.09,-2.53 0.14,-4.79 0.14,-6.77l0 -13.97c0,-1.65 -0.03,-3.3 -0.08,-4.92 -0.06,-1.63 -0.16,-3.24 -0.32,-4.83l-3.79 -2.81 -5.25 -1.05zm8.53 0.76l34.44 38.32 0 -2.69 -32.06 -35.63 -2.38 0z"/>
 </g>
</svg>
